HIERARCHY
ROOT Hips
{
  OFFSET 0 0 0
  CHANNELS 6 Xposition Yposition Zposition Zrotation Yrotation Xrotation
  JOINT LeftThigh
  {
    OFFSET 8.409438 0 -5.917753
    CHANNELS 3 Zrotation Yrotation Xrotation
    JOINT LeftLeg
    {
      OFFSET 0 0 -42.358652
      CHANNELS 3 Zrotation Yrotation Xrotation
      JOINT LeftFoot
      {
        OFFSET 0 0 -39.357303
        CHANNELS 3 Zrotation Yrotation Xrotation
      }
    }
  }
  JOINT RightThigh
  {
    OFFSET -8.409438 0 -5.917753
    CHANNELS 3 Zrotation Yrotation Xrotation
    JOINT RightLeg
    {
      OFFSET 0 0 -42.358652
      CHANNELS 3 Zrotation Yrotation Xrotation
      JOINT RightFoot
      {
        OFFSET 0 0 -39.357303
        CHANNELS 3 Zrotation Yrotation Xrotation
      }
    }
  }
  JOINT SpineLow
  {
    OFFSET 0 0 4.719101
    CHANNELS 3 Zrotation Yrotation Xrotation
    JOINT SpineMid
    {
      OFFSET 0 0 12.899191
      CHANNELS 3 Zrotation Yrotation Xrotation
      JOINT Chest
      {
        OFFSET 0 0 12.899191
        CHANNELS 3 Zrotation Yrotation Xrotation
        JOINT LeftShoulder
        {
          OFFSET 7.550562 1.41573 9.438202
          CHANNELS 3 Zrotation Yrotation Xrotation
          JOINT LeftArm
          {
            OFFSET 9.155056 0 4.247191
            CHANNELS 3 Zrotation Yrotation Xrotation
            JOINT LeftForearm
            {
              OFFSET 0 0 25.771955
              CHANNELS 3 Zrotation Yrotation Xrotation
              JOINT LeftHand
              {
                OFFSET 0 0 25.197169
                CHANNELS 3 Zrotation Yrotation Xrotation
              }
            }
          }
        }
        JOINT RightShoulder
        {
          OFFSET -7.550562 1.41573 9.438202
          CHANNELS 3 Zrotation Yrotation Xrotation
          JOINT RightArm
          {
            OFFSET -9.155056 0 4.247191
            CHANNELS 3 Zrotation Yrotation Xrotation
            JOINT RightForearm
            {
              OFFSET 0 0 -25.771955
              CHANNELS 3 Zrotation Yrotation Xrotation
              JOINT RightHand
              {
                OFFSET 0 0 -25.197169
                CHANNELS 3 Zrotation Yrotation Xrotation
              }
            }
          }
        }
        JOINT Neck
        {
          OFFSET 0 0 15.101124
          CHANNELS 3 Zrotation Yrotation Xrotation
          JOINT Head
          {
            OFFSET 0 0 11.325843
            CHANNELS 3 Zrotation Yrotation Xrotation
            End Site
            {
              OFFSET 0 0 14.157303
            }
          }
        }
      }
    }
  }
}
MOTION
Frames: 5
Frame Time: 0.0
0.0  93.25843  0.0  -4.568135  -8.921444  -86.590522  15.491615  -16.539083  -2.336165  -6.141364  -0.767919  8.017439  11.758145  2.520211  5.964815  -23.368777  -0.401393  -10.436796  -5.052492  6.245078  8.628525  10.797976  3.636292  0.920031  7.357334  -0.517426  -1.712684  20.136746  -0.881036  -4.788489  20.136747  -0.881036  -4.78849  6.732069  23.793176  4.531772  175.386142  17.946369  -178.188486  -38.635142  29.974324  98.178728  51.09327  11.470832  7.104404  -0.320175  9.122942  6.342752  -144.471955  46.014241  -174.939634  -61.42347  49.103742  -97.760408  48.975026  -37.436389  53.371709  -20.397522  6.413239  12.267617  -15.418525  4.408558  9.418394  
0.0  93.25843  0.0  -4.790724  -9.138636  -86.552404  16.588444  -16.967749  -2.617113  -6.508248  -0.545103  8.211265  11.635031  2.534258  5.975285  -22.992857  -0.549861  -10.121418  -5.246346  6.047455  8.374942  10.817927  3.620717  0.999394  7.195582  -0.57158  -1.72345  19.69922  -1.03615  -4.832498  19.699219  -1.03615  -4.832498  6.186883  23.769245  4.222214  175.13966  18.126887  -178.616525  -39.147444  29.820792  97.486172  51.961871  11.777792  8.488937  0.173313  9.007  6.363141  -144.328312  45.889544  -174.947333  -62.026473  47.811451  -98.322607  50.708075  -37.363716  52.458666  -19.889131  6.568999  12.12234  -15.038106  4.540239  9.308094  
0.0  93.25843  0.0  -4.832952  -9.324765  -86.436288  17.643222  -17.179096  -3.006437  -6.957292  -0.331384  8.442056  11.498379  2.53373  5.934889  -22.484351  -0.611997  -9.985503  -5.531192  5.931131  8.189695  10.759747  3.64273  1.055029  7.027862  -0.571166  -1.705437  19.240829  -1.052705  -4.781927  19.24083  -1.052705  -4.781926  5.914473  23.598906  3.868151  175.015566  18.623791  -178.967618  -38.267662  28.36214  97.650225  51.317076  11.785718  9.088415  0.48243  9.204964  6.081885  -144.0356  46.068106  -174.921108  -62.28252  47.902327  -98.644757  50.604841  -37.235432  52.542419  -19.351889  6.492697  11.885479  -14.631489  4.500717  9.121778  
0.0  93.25843  0.0  -4.79669  -9.370789  -86.498922  18.071299  -17.269047  -3.282335  -7.076158  -0.198461  8.898857  11.433025  2.548625  5.895602  -22.240384  -0.617288  -9.830313  -6.30382  5.846976  8.012194  11.256464  3.809466  1.162563  6.838127  -0.565551  -1.626931  18.721247  -1.073582  -4.565713  18.721248  -1.073582  -4.565713  5.716818  23.498899  3.465543  174.59893  18.709036  -179.43312  -37.125616  26.977039  98.54494  50.397823  11.542153  8.908449  0.443257  9.351628  5.541749  -143.673898  46.046837  -175.063941  -62.928713  47.816426  -98.985411  50.493329  -37.159513  52.617195  -18.946955  6.325959  11.480116  -14.320845  4.395569  8.808201  
0.0  93.25843  0.0  -4.711419  -9.299173  -86.656073  18.344574  -17.298762  -3.245475  -7.372453  -0.132251  9.042196  11.492467  2.53887  5.887198  -22.203803  -0.577297  -9.668969  -6.37657  5.865812  8.116849  11.291048  3.897385  1.131503  6.552304  -0.589214  -1.526962  17.940907  -1.184768  -4.297941  17.940905  -1.184768  -4.297941  6.208917  23.624435  3.238642  174.201153  18.910943  -179.599319  -36.664915  25.926773  98.743537  49.132855  10.936093  8.458799  1.216657  9.42128  5.162862  -143.478317  45.822327  -175.141173  -63.535704  47.49086  -99.340736  50.436684  -36.838275  52.785703  -18.214565  6.198882  11.06637  -13.76542  4.325734  8.486003  
